<mxfile host="65bd71144e">
    <diagram id="ZTj9-JZGmbIfw60x7ia-" name="Page-1">
        <mxGraphModel dx="2026" dy="1343" grid="1" gridSize="10" guides="1" tooltips="1" connect="1" arrows="1" fold="1" page="1" pageScale="1" pageWidth="850" pageHeight="1100" math="0" shadow="0">
            <root>
                <mxCell id="0"/>
                <mxCell id="1" parent="0"/>
                <mxCell id="2" value="" style="whiteSpace=wrap;html=1;aspect=fixed;" vertex="1" parent="1">
                    <mxGeometry x="35" y="100" width="390" height="390" as="geometry"/>
                </mxCell>
                <mxCell id="3" value="" style="whiteSpace=wrap;html=1;aspect=fixed;" vertex="1" parent="1">
                    <mxGeometry x="445" y="100" width="390" height="390" as="geometry"/>
                </mxCell>
                <mxCell id="12" value="FLOWCHART" style="swimlane;startSize=20;horizontal=1;childLayout=treeLayout;horizontalTree=0;resizable=0;containerType=tree;fontSize=12;" vertex="1" parent="1">
                    <mxGeometry x="500" y="140" width="280" height="190" as="geometry"/>
                </mxCell>
                <mxCell id="13" value="Root" style="whiteSpace=wrap;html=1;" vertex="1" parent="12">
                    <mxGeometry x="90" y="40" width="100" height="40" as="geometry"/>
                </mxCell>
                <mxCell id="14" value="Child 1" style="whiteSpace=wrap;html=1;" vertex="1" parent="12">
                    <mxGeometry x="20" y="130" width="100" height="40" as="geometry"/>
                </mxCell>
                <mxCell id="15" value="" style="edgeStyle=elbowEdgeStyle;elbow=vertical;html=1;rounded=1;curved=0;sourcePerimeterSpacing=0;targetPerimeterSpacing=0;startSize=6;endSize=6;" edge="1" parent="12" source="13" target="14">
                    <mxGeometry relative="1" as="geometry"/>
                </mxCell>
                <mxCell id="16" value="Child 2" style="whiteSpace=wrap;html=1;" vertex="1" parent="12">
                    <mxGeometry x="160" y="130" width="100" height="40" as="geometry"/>
                </mxCell>
                <mxCell id="17" value="" style="edgeStyle=elbowEdgeStyle;elbow=vertical;html=1;rounded=1;curved=0;sourcePerimeterSpacing=0;targetPerimeterSpacing=0;startSize=6;endSize=6;" edge="1" parent="12" source="13" target="16">
                    <mxGeometry relative="1" as="geometry"/>
                </mxCell>
                <mxCell id="18" value="DOWNLOAD" style="rounded=1;whiteSpace=wrap;html=1;" vertex="1" parent="1">
                    <mxGeometry x="745" y="460" width="75" height="20" as="geometry"/>
                </mxCell>
                <mxCell id="19" value="" style="rounded=0;whiteSpace=wrap;html=1;" vertex="1" parent="1">
                    <mxGeometry x="45" y="120" width="370" height="270" as="geometry"/>
                </mxCell>
                <mxCell id="20" value="Chatbox" style="rounded=0;whiteSpace=wrap;html=1;" vertex="1" parent="1">
                    <mxGeometry x="45" y="400" width="370" height="50" as="geometry"/>
                </mxCell>
                <mxCell id="24" value="RUN" style="rounded=1;whiteSpace=wrap;html=1;" vertex="1" parent="1">
                    <mxGeometry x="45" y="460" width="55" height="20" as="geometry"/>
                </mxCell>
                <mxCell id="25" value="CLEAN" style="rounded=1;whiteSpace=wrap;html=1;" vertex="1" parent="1">
                    <mxGeometry x="105" y="460" width="55" height="20" as="geometry"/>
                </mxCell>
                <mxCell id="27" value="" style="shape=actor;whiteSpace=wrap;html=1;" vertex="1" parent="1">
                    <mxGeometry x="385" y="180" width="15" height="20" as="geometry"/>
                </mxCell>
                <mxCell id="28" value="" style="shape=callout;whiteSpace=wrap;html=1;perimeter=calloutPerimeter;size=20;position=0.8;base=20;position2=0.93;gradientColor=#519DCE" vertex="1" parent="1">
                    <mxGeometry x="175" y="130" width="200" height="60" as="geometry"/>
                </mxCell>
                <mxCell id="31" value="" style="rounded=1;whiteSpace=wrap;html=1;gradientColor=#B3FFDA" vertex="1" parent="1">
                    <mxGeometry x="55" y="225" width="300" height="45" as="geometry"/>
                </mxCell>
                <mxCell id="32" value="" style="shape=actor;whiteSpace=wrap;html=1;" vertex="1" parent="1">
                    <mxGeometry x="385" y="350" width="15" height="20" as="geometry"/>
                </mxCell>
                <mxCell id="33" value="" style="shape=callout;whiteSpace=wrap;html=1;perimeter=calloutPerimeter;size=20;position=0.8;base=20;position2=0.93;gradientColor=#519DCE" vertex="1" parent="1">
                    <mxGeometry x="175" y="300" width="200" height="60" as="geometry"/>
                </mxCell>
                <mxCell id="47" value="Reports" style="text;strokeColor=none;fillColor=none;html=1;fontSize=24;fontStyle=1;verticalAlign=middle;align=center;" vertex="1" parent="1">
                    <mxGeometry x="445" y="100" width="100" height="40" as="geometry"/>
                </mxCell>
                <UserObject label="Status" placeholders="1" id="48">
                    <mxCell style="text;html=1;strokeColor=none;fillColor=none;align=center;verticalAlign=middle;whiteSpace=wrap;overflow=hidden;" vertex="1" parent="1">
                        <mxGeometry x="355" y="460" width="65" height="20" as="geometry"/>
                    </mxCell>
                </UserObject>
                <mxCell id="49" value="" style="whiteSpace=wrap;html=1;aspect=fixed;" vertex="1" parent="1">
                    <mxGeometry x="35" y="660" width="390" height="390" as="geometry"/>
                </mxCell>
                <mxCell id="50" value="" style="whiteSpace=wrap;html=1;aspect=fixed;" vertex="1" parent="1">
                    <mxGeometry x="445" y="660" width="390" height="390" as="geometry"/>
                </mxCell>
                <mxCell id="51" value="FLOWCHART" style="swimlane;startSize=20;horizontal=1;childLayout=treeLayout;horizontalTree=0;resizable=0;containerType=tree;fontSize=12;" vertex="1" parent="1">
                    <mxGeometry x="500" y="700" width="280" height="190" as="geometry"/>
                </mxCell>
                <mxCell id="52" value="Root" style="whiteSpace=wrap;html=1;" vertex="1" parent="51">
                    <mxGeometry x="90" y="40" width="100" height="40" as="geometry"/>
                </mxCell>
                <mxCell id="53" value="Child 1" style="whiteSpace=wrap;html=1;" vertex="1" parent="51">
                    <mxGeometry x="20" y="130" width="100" height="40" as="geometry"/>
                </mxCell>
                <mxCell id="54" value="" style="edgeStyle=elbowEdgeStyle;elbow=vertical;html=1;rounded=1;curved=0;sourcePerimeterSpacing=0;targetPerimeterSpacing=0;startSize=6;endSize=6;" edge="1" parent="51" source="52" target="53">
                    <mxGeometry relative="1" as="geometry"/>
                </mxCell>
                <mxCell id="55" value="Child 2" style="whiteSpace=wrap;html=1;" vertex="1" parent="51">
                    <mxGeometry x="160" y="130" width="100" height="40" as="geometry"/>
                </mxCell>
                <mxCell id="56" value="" style="edgeStyle=elbowEdgeStyle;elbow=vertical;html=1;rounded=1;curved=0;sourcePerimeterSpacing=0;targetPerimeterSpacing=0;startSize=6;endSize=6;" edge="1" parent="51" source="52" target="55">
                    <mxGeometry relative="1" as="geometry"/>
                </mxCell>
                <mxCell id="57" value="DOWNLOAD" style="rounded=1;whiteSpace=wrap;html=1;" vertex="1" parent="1">
                    <mxGeometry x="745" y="1020" width="75" height="20" as="geometry"/>
                </mxCell>
                <mxCell id="58" value="" style="rounded=0;whiteSpace=wrap;html=1;" vertex="1" parent="1">
                    <mxGeometry x="45" y="680" width="370" height="220" as="geometry"/>
                </mxCell>
                <mxCell id="59" value="Chatbox" style="rounded=0;whiteSpace=wrap;html=1;" vertex="1" parent="1">
                    <mxGeometry x="45" y="970" width="370" height="40" as="geometry"/>
                </mxCell>
                <mxCell id="60" value="RUN" style="rounded=1;whiteSpace=wrap;html=1;" vertex="1" parent="1">
                    <mxGeometry x="45" y="1020" width="55" height="20" as="geometry"/>
                </mxCell>
                <mxCell id="61" value="CLEAN" style="rounded=1;whiteSpace=wrap;html=1;" vertex="1" parent="1">
                    <mxGeometry x="105" y="1020" width="55" height="20" as="geometry"/>
                </mxCell>
                <mxCell id="62" value="" style="shape=actor;whiteSpace=wrap;html=1;" vertex="1" parent="1">
                    <mxGeometry x="385" y="740" width="15" height="20" as="geometry"/>
                </mxCell>
                <mxCell id="63" value="fmt::markdown" style="shape=callout;whiteSpace=wrap;html=1;perimeter=calloutPerimeter;size=20;position=0.8;base=20;position2=0.93;gradientColor=#519DCE" vertex="1" parent="1">
                    <mxGeometry x="175" y="690" width="200" height="60" as="geometry"/>
                </mxCell>
                <mxCell id="64" value="render::markdown" style="rounded=1;whiteSpace=wrap;html=1;gradientColor=#B3FFDA" vertex="1" parent="1">
                    <mxGeometry x="55" y="760" width="300" height="45" as="geometry"/>
                </mxCell>
                <mxCell id="67" value="" style="shape=table;html=1;whiteSpace=wrap;startSize=10;container=1;collapsible=0;childLayout=tableLayout;" vertex="1" parent="1">
                    <mxGeometry x="500" y="920" width="285" height="60" as="geometry"/>
                </mxCell>
                <mxCell id="68" value="" style="shape=tableRow;horizontal=0;startSize=0;swimlaneHead=0;swimlaneBody=0;top=0;left=0;bottom=0;right=0;collapsible=0;dropTarget=0;fillColor=none;points=[[0,0.5],[1,0.5]];portConstraint=eastwest;" vertex="1" parent="67">
                    <mxGeometry y="10" width="285" height="17" as="geometry"/>
                </mxCell>
                <mxCell id="69" value="" style="shape=partialRectangle;html=1;whiteSpace=wrap;connectable=0;fillColor=none;top=0;left=0;bottom=0;right=0;overflow=hidden;" vertex="1" parent="68">
                    <mxGeometry width="94" height="17" as="geometry">
                        <mxRectangle width="94" height="17" as="alternateBounds"/>
                    </mxGeometry>
                </mxCell>
                <mxCell id="70" value="" style="shape=partialRectangle;html=1;whiteSpace=wrap;connectable=0;fillColor=none;top=0;left=0;bottom=0;right=0;overflow=hidden;" vertex="1" parent="68">
                    <mxGeometry x="94" width="97" height="17" as="geometry">
                        <mxRectangle width="97" height="17" as="alternateBounds"/>
                    </mxGeometry>
                </mxCell>
                <mxCell id="71" value="" style="shape=partialRectangle;html=1;whiteSpace=wrap;connectable=0;fillColor=none;top=0;left=0;bottom=0;right=0;overflow=hidden;" vertex="1" parent="68">
                    <mxGeometry x="191" width="94" height="17" as="geometry">
                        <mxRectangle width="94" height="17" as="alternateBounds"/>
                    </mxGeometry>
                </mxCell>
                <mxCell id="72" value="" style="shape=tableRow;horizontal=0;startSize=0;swimlaneHead=0;swimlaneBody=0;top=0;left=0;bottom=0;right=0;collapsible=0;dropTarget=0;fillColor=none;points=[[0,0.5],[1,0.5]];portConstraint=eastwest;" vertex="1" parent="67">
                    <mxGeometry y="27" width="285" height="17" as="geometry"/>
                </mxCell>
                <mxCell id="73" value="" style="shape=partialRectangle;html=1;whiteSpace=wrap;connectable=0;fillColor=none;top=0;left=0;bottom=0;right=0;overflow=hidden;" vertex="1" parent="72">
                    <mxGeometry width="94" height="17" as="geometry">
                        <mxRectangle width="94" height="17" as="alternateBounds"/>
                    </mxGeometry>
                </mxCell>
                <mxCell id="74" value="" style="shape=partialRectangle;html=1;whiteSpace=wrap;connectable=0;fillColor=none;top=0;left=0;bottom=0;right=0;overflow=hidden;" vertex="1" parent="72">
                    <mxGeometry x="94" width="97" height="17" as="geometry">
                        <mxRectangle width="97" height="17" as="alternateBounds"/>
                    </mxGeometry>
                </mxCell>
                <mxCell id="75" value="" style="shape=partialRectangle;html=1;whiteSpace=wrap;connectable=0;fillColor=none;top=0;left=0;bottom=0;right=0;overflow=hidden;" vertex="1" parent="72">
                    <mxGeometry x="191" width="94" height="17" as="geometry">
                        <mxRectangle width="94" height="17" as="alternateBounds"/>
                    </mxGeometry>
                </mxCell>
                <mxCell id="76" value="" style="shape=tableRow;horizontal=0;startSize=0;swimlaneHead=0;swimlaneBody=0;top=0;left=0;bottom=0;right=0;collapsible=0;dropTarget=0;fillColor=none;points=[[0,0.5],[1,0.5]];portConstraint=eastwest;" vertex="1" parent="67">
                    <mxGeometry y="44" width="285" height="16" as="geometry"/>
                </mxCell>
                <mxCell id="77" value="" style="shape=partialRectangle;html=1;whiteSpace=wrap;connectable=0;fillColor=none;top=0;left=0;bottom=0;right=0;overflow=hidden;" vertex="1" parent="76">
                    <mxGeometry width="94" height="16" as="geometry">
                        <mxRectangle width="94" height="16" as="alternateBounds"/>
                    </mxGeometry>
                </mxCell>
                <mxCell id="78" value="" style="shape=partialRectangle;html=1;whiteSpace=wrap;connectable=0;fillColor=none;top=0;left=0;bottom=0;right=0;overflow=hidden;" vertex="1" parent="76">
                    <mxGeometry x="94" width="97" height="16" as="geometry">
                        <mxRectangle width="97" height="16" as="alternateBounds"/>
                    </mxGeometry>
                </mxCell>
                <mxCell id="79" value="" style="shape=partialRectangle;html=1;whiteSpace=wrap;connectable=0;fillColor=none;top=0;left=0;bottom=0;right=0;overflow=hidden;pointerEvents=1;" vertex="1" parent="76">
                    <mxGeometry x="191" width="94" height="16" as="geometry">
                        <mxRectangle width="94" height="16" as="alternateBounds"/>
                    </mxGeometry>
                </mxCell>
                <mxCell id="80" value="Reports" style="text;strokeColor=none;fillColor=none;html=1;fontSize=24;fontStyle=1;verticalAlign=middle;align=center;" vertex="1" parent="1">
                    <mxGeometry x="445" y="660" width="100" height="40" as="geometry"/>
                </mxCell>
                <UserObject label="Status" placeholders="1" id="81">
                    <mxCell style="text;html=1;strokeColor=none;fillColor=none;align=center;verticalAlign=middle;whiteSpace=wrap;overflow=hidden;" vertex="1" parent="1">
                        <mxGeometry x="355" y="1020" width="65" height="20" as="geometry"/>
                    </mxCell>
                </UserObject>
                <mxCell id="82" value="" style="group" vertex="1" connectable="0" parent="1">
                    <mxGeometry x="175" y="820" width="225" height="70" as="geometry"/>
                </mxCell>
                <mxCell id="65" value="" style="shape=actor;whiteSpace=wrap;html=1;" vertex="1" parent="82">
                    <mxGeometry x="210" y="50" width="15" height="20" as="geometry"/>
                </mxCell>
                <mxCell id="66" value="" style="shape=callout;whiteSpace=wrap;html=1;perimeter=calloutPerimeter;size=20;position=0.8;base=20;position2=0.93;gradientColor=#519DCE" vertex="1" parent="82">
                    <mxGeometry width="200" height="60" as="geometry"/>
                </mxCell>
                <mxCell id="83" value="promots tweek(base64)" style="rounded=0;whiteSpace=wrap;html=1;" vertex="1" parent="1">
                    <mxGeometry x="45" y="920" width="370" height="40" as="geometry"/>
                </mxCell>
                <mxCell id="86" value="prompts" style="rounded=0;whiteSpace=wrap;html=1;fillColor=#FF79CA;fontSize=8pt" vertex="1" parent="1">
                    <mxGeometry x="45" y="920" width="35" height="10" as="geometry"/>
                </mxCell>
                <mxCell id="91" value="Chat" style="rounded=0;whiteSpace=wrap;html=1;fillColor=#7BB9EE;fontSize=8pt" vertex="1" parent="1">
                    <mxGeometry x="45" y="970" width="35" height="10" as="geometry"/>
                </mxCell>
                <mxCell id="92" value="Version 1" style="text;strokeColor=none;fillColor=none;html=1;fontSize=24;fontStyle=1;verticalAlign=middle;align=center;" vertex="1" parent="1">
                    <mxGeometry x="35" y="50" width="100" height="40" as="geometry"/>
                </mxCell>
                <mxCell id="93" value="Version 2" style="text;strokeColor=none;fillColor=none;html=1;fontSize=24;fontStyle=1;verticalAlign=middle;align=center;" vertex="1" parent="1">
                    <mxGeometry x="35" y="610" width="100" height="40" as="geometry"/>
                </mxCell>
            </root>
        </mxGraphModel>
    </diagram>
</mxfile>